<svg height="20" viewBox="0 0 110 20" width="110" xmlns="http://www.w3.org/2000/svg" xmlns:xlink="http://www.w3.org/1999/xlink"><filter id="a" filterUnits="userSpaceOnUse" height="20" width="111" x="0" y="0"><feColorMatrix values="1 0 0 0 0 0 1 0 0 0 0 0 1 0 0 0 0 0 1 0"/></filter><mask id="b" height="20" maskUnits="userSpaceOnUse" width="111" x="0" y="0"><path d="m3 0h104c1.66 0 3 1.34 3 3v14c0 1.66-1.34 3-3 3h-104c-1.66 0-3-1.34-3-3v-14c0-1.66 1.34-3 3-3z" fill="#fff" filter="url(#a)"/></mask><linearGradient id="c" gradientTransform="matrix(111 0 0 -20 29040 4791)" gradientUnits="userSpaceOnUse" x1="-261.122" x2="-261.122" y1="239.55" y2="238.55"><stop offset="0" stop-color="#bbb" stop-opacity=".1"/><stop offset="1" stop-opacity=".1"/></linearGradient><g mask="url(#b)"><path d="m0 0h34v20h-34z" fill="#cca6c4"/><path d="m34 0h77v20h-77z" fill="#494368"/><path d="m0 0h111v20h-111z" fill="url(#c)"/></g><path d="m46.97 7.62c.42 0 .75.13 1.05.4.28.27.43.59.43.98v4.79h-5.24c-.42 0-.77-.13-1.05-.4s-.43-.59-.43-.98v-2.27h5.5v-1.15c0-.07-.03-.12-.08-.16s-.11-.07-.17-.07h-5.24v-1.14zm.26 5.02v-1.36h-4.26v1.13c0 .07.03.12.08.16s.11.07.17.07zm11.86-5.02h1.3l-2.49 6.17h-1l-2.22-4.59-2.1 4.59-.03-.01.01.01h-1l-2.6-6.17h1.3l1.79 4.09 1.91-4.09h1.4l2.02 4.09zm6.95 0c.42 0 .77.13 1.05.4s.43.59.43.98v2.27h-5.5v1.13c0 .07.03.12.08.16s.11.07.17.07h5.24v1.14h-5.24c-.42 0-.77-.13-1.05-.4s-.43-.59-.43-.98v-3.4c0-.38.15-.71.43-.98s.63-.4 1.05-.4h3.77zm-4.01 2.5h4.26v-1.13c0-.07-.03-.12-.08-.16s-.11-.07-.17-.07h-3.77c-.07 0-.12.03-.17.07s-.08.11-.08.16v1.13zm13.35-1.13v.23h-1.22v-.23c0-.07-.03-.12-.08-.16s-.11-.07-.17-.07h-3.77c-.07 0-.12.03-.17.07s-.08.11-.08.16v.9c0 .07.03.12.08.16s.11.07.17.07h3.77c.42 0 .75.13 1.05.4.28.27.43.59.43.98v.89c0 .38-.15.71-.43.98s-.63.4-1.05.4h-3.77c-.42 0-.77-.13-1.05-.4s-.43-.59-.43-.98v-.23h1.24v.23c0 .07.03.12.08.16s.11.07.17.07h3.77c.07 0 .12-.03.17-.07s.08-.11.08-.16v-.89c0-.07-.03-.12-.08-.16s-.11-.07-.17-.07h-3.77c-.42 0-.77-.13-1.05-.4s-.43-.59-.43-.98v-.9c0-.38.15-.71.43-.98s.63-.4 1.05-.4h3.77c.42 0 .75.13 1.05.4.27.28.41.61.41.98zm2.6-1.37h3.77c.42 0 .77.13 1.05.4s.43.59.43.98v3.4c0 .38-.15.71-.43.98s-.63.4-1.05.4h-3.77c-.42 0-.77-.13-1.05-.4s-.43-.59-.43-.98v-3.41c0-.38.15-.71.43-.98.3-.26.65-.39 1.05-.39zm3.77 1.14h-3.77c-.07 0-.12.03-.17.07s-.08.11-.08.16v3.4c0 .07.03.12.08.16s.11.07.17.07h3.77c.07 0 .12-.03.17-.07s.08-.11.08-.16v-3.4c0-.07-.03-.12-.08-.16-.04-.04-.1-.07-.17-.07zm11.12-1.14c.42 0 .75.13 1.05.4.28.27.43.59.43.98v4.79h-1.22v-4.8c0-.07-.03-.12-.08-.16s-.11-.07-.19-.07h-2.61c-.07 0-.12.03-.17.07s-.08.11-.08.16v4.79h-1.24v-4.79c0-.07-.03-.12-.08-.16s-.11-.07-.17-.07h-2.62c-.07 0-.12.03-.17.07s-.08.11-.08.16v4.79h-1.24v-6.16zm7.92 0c.42 0 .77.13 1.05.4s.43.59.43.98v2.27h-5.5v1.13c0 .07.03.12.08.16s.11.07.17.07h5.24v1.14h-5.24c-.42 0-.77-.13-1.05-.4s-.43-.59-.43-.98v-3.4c0-.38.15-.71.43-.98s.63-.4 1.05-.4h3.77zm-4.02 2.5h4.26v-1.13c0-.07-.03-.12-.08-.16s-.11-.07-.17-.07h-3.77c-.07 0-.12.03-.17.07s-.08.11-.08.16v1.13z"/><path d="m46.97 6.92c.42 0 .75.13 1.05.4.28.27.43.59.43.98v4.79h-5.24c-.42 0-.77-.13-1.05-.4s-.43-.59-.43-.98v-2.27h5.5v-1.15c0-.07-.03-.12-.08-.16s-.11-.07-.17-.07h-5.24v-1.14zm.26 5.02v-1.36h-4.26v1.13c0 .07.03.12.08.16s.11.07.17.07zm11.86-5.02h1.3l-2.49 6.17h-1l-2.22-4.59-2.1 4.59-.03-.01.01.01h-1l-2.6-6.17h1.3l1.79 4.09 1.91-4.09h1.4l2.02 4.09zm6.95 0c.42 0 .77.13 1.05.4s.43.59.43.98v2.27h-5.5v1.13c0 .07.03.12.08.16s.11.07.17.07h5.24v1.14h-5.24c-.42 0-.77-.13-1.05-.4s-.43-.59-.43-.98v-3.4c0-.38.15-.71.43-.98s.63-.4 1.05-.4h3.77zm-4.01 2.5h4.26v-1.13c0-.07-.03-.12-.08-.16s-.11-.07-.17-.07h-3.77c-.07 0-.12.03-.17.07s-.08.11-.08.16v1.13zm13.35-1.13v.23h-1.22v-.23c0-.07-.03-.12-.08-.16s-.11-.07-.17-.07h-3.77c-.07 0-.12.03-.17.07s-.08.11-.08.16v.9c0 .07.03.12.08.16s.11.07.17.07h3.77c.42 0 .75.13 1.05.4.28.27.43.59.43.98v.89c0 .38-.15.71-.43.98s-.63.4-1.05.4h-3.77c-.42 0-.77-.13-1.05-.4s-.43-.59-.43-.98v-.23h1.24v.23c0 .07.03.12.08.16s.11.07.17.07h3.77c.07 0 .12-.03.17-.07s.08-.11.08-.16v-.89c0-.07-.03-.12-.08-.16s-.11-.07-.17-.07h-3.77c-.42 0-.77-.13-1.05-.4s-.43-.59-.43-.98v-.9c0-.38.15-.71.43-.98s.63-.4 1.05-.4h3.77c.42 0 .75.13 1.05.4.27.28.41.61.41.98zm2.6-1.37h3.77c.42 0 .77.13 1.05.4s.43.59.43.98v3.4c0 .38-.15.71-.43.98s-.63.4-1.05.4h-3.77c-.42 0-.77-.13-1.05-.4s-.43-.59-.43-.98v-3.41c0-.38.15-.71.43-.98.3-.26.65-.39 1.05-.39zm3.77 1.14h-3.77c-.07 0-.12.03-.17.07s-.08.11-.08.16v3.4c0 .07.03.12.08.16s.11.07.17.07h3.77c.07 0 .12-.03.17-.07s.08-.11.08-.16v-3.4c0-.07-.03-.12-.08-.16-.04-.04-.1-.07-.17-.07zm11.12-1.14c.42 0 .75.13 1.05.4.28.27.43.59.43.98v4.79h-1.22v-4.8c0-.07-.03-.12-.08-.16s-.11-.07-.19-.07h-2.61c-.07 0-.12.03-.17.07s-.08.11-.08.16v4.79h-1.24v-4.79c0-.07-.03-.12-.08-.16s-.11-.07-.17-.07h-2.62c-.07 0-.12.03-.17.07s-.08.11-.08.16v4.79h-1.24v-6.16zm7.92 0c.42 0 .77.13 1.05.4s.43.59.43.98v2.27h-5.5v1.13c0 .07.03.12.08.16s.11.07.17.07h5.24v1.14h-5.24c-.42 0-.77-.13-1.05-.4s-.43-.59-.43-.98v-3.4c0-.38.15-.71.43-.98s.63-.4 1.05-.4h3.77zm-4.02 2.5h4.26v-1.13c0-.07-.03-.12-.08-.16s-.11-.07-.17-.07h-3.77c-.07 0-.12.03-.17.07s-.08.11-.08.16v1.13z" fill="#fff"/><path d="m26.57 9.76-4.91-4.5-.69.75 4.09 3.75h-16.12l4.09-3.75-.69-.75-4.91 4.5v2.97c0 1.34 1.29 2.43 2.88 2.43h3.03c1.59 0 2.88-1.09 2.88-2.43v-1.95h1.57v1.95c0 1.34 1.29 2.43 2.88 2.43h3.03c1.59 0 2.88-1.09 2.88-2.43z" fill="#dda4ca"/><path d="m26.57 9.34-4.91-4.5-.69.75 4.09 3.75h-16.12l4.09-3.75-.69-.75-4.91 4.5v2.97c0 1.34 1.29 2.43 2.88 2.43h3.03c1.59 0 2.88-1.09 2.88-2.43v-1.95h1.57v1.95c0 1.34 1.29 2.43 2.88 2.43h3.03c1.59 0 2.88-1.09 2.88-2.43z" fill="#261120"/></svg>